<svg xmlns="http://www.w3.org/2000/svg" xml:space="preserve" id="Слой_1" x="0" y="0" style="enable-background:new 0 0 100 100" version="1.1" viewBox="0 0 100 100"><style>.st0{fill:none;stroke:orange;stroke-width:2.5;stroke-miterlimit:12.5}.st1{fill:orange}</style><path d="M85.6 18.8H14.4c-3.8 0-6.9 3.1-6.9 6.9v51.2c0 3.8 3.1 6.9 6.9 6.9h71.2c3.8 0 6.9-3.1 6.9-6.9V25.6c0-3.8-3.1-6.8-6.9-6.8z" class="st0"/><circle cx="85" cy="82.5" r="1.2" class="st1"/><circle cx="85" cy="77.5" r="1.2" class="st1"/><circle cx="85" cy="72.5" r="1.2" class="st1"/><circle cx="85" cy="67.5" r="1.2" class="st1"/><circle cx="85" cy="62.5" r="1.2" class="st1"/><circle cx="85" cy="57.5" r="1.2" class="st1"/><circle cx="85" cy="52.5" r="1.2" class="st1"/><circle cx="85" cy="47.5" r="1.2" class="st1"/><circle cx="85" cy="42.5" r="1.2" class="st1"/><circle cx="15" cy="77.5" r="1.2" class="st1"/><circle cx="15" cy="72.5" r="1.2" class="st1"/><circle cx="15" cy="67.5" r="1.2" class="st1"/><circle cx="15" cy="62.5" r="1.2" class="st1"/><circle cx="15" cy="57.5" r="1.2" class="st1"/><circle cx="15" cy="52.5" r="1.2" class="st1"/><circle cx="15" cy="47.5" r="1.2" class="st1"/><circle cx="15" cy="42.5" r="1.2" class="st1"/><circle cx="85" cy="37.5" r="1.2" class="st1"/><circle cx="15" cy="37.5" r="1.2" class="st1"/><circle cx="15" cy="82.5" r="1.2" class="st1"/><path d="M92.5 25.6c0 2.5-1.2 4.7-3.2 6.2L50 59.1 10.7 31.8c-2-1.4-3.2-3.7-3.2-6.2" class="st0"/><path d="m10 21.2 40 27.9 40-27.9" style="fill:none;stroke:orange;stroke-width:2.5;stroke-linecap:round;stroke-miterlimit:12.5;stroke-dasharray:.125,5"/></svg>