<svg xmlns="http://www.w3.org/2000/svg" xml:space="preserve" x="0" y="0" style="enable-background:new 0 0 512 512" version="1.1" viewBox="0 0 512 512"><style>.st0{fill:#ff641a}.st1{fill:#f03800}.st2{fill:#bbdcff}.st3{fill:#9abadb}.st4{fill:#25d9f8}.st5{fill:#00c0f1}.st6{fill:#61729b}</style><path d="M252.68 0H256v121.03c-5.05-.11-10.12-.64-15-1.99-8.98-2.37-17.39-6.81-24.38-12.92-2.51-2.2-4.82-4.62-6.96-7.18-6.43-7.81-10.79-17.26-12.69-27.2-3.51-18.6 2.6-38.52 15.48-52.31C222.75 8.15 237.43 1.05 252.68 0zM28.99 401.16c13.08-8.12 29.3-11.13 44.39-7.86a60.155 60.155 0 0 1 24.42 11.36c7.96 6.24 14.34 14.47 18.34 23.77 5.17 12.07 6.32 25.86 2.91 38.57-3.71 14.47-13.06 27.37-25.64 35.42-8.86 5.78-19.3 8.96-29.84 9.58h-5.75c-14.16-.97-28-6.71-38.41-16.42C8.1 485.29 1.04 470.58 0 455.33v-6.53c1.15-19.37 12.4-37.64 28.99-47.64z" class="st0"/><path d="M256 0h6.11c16.39 2.03 31.83 10.86 41.64 24.19 10.19 13.39 14.48 31.06 11.41 47.61-1.88 9.92-6.25 19.34-12.63 27.17-2.12 2.55-4.4 4.97-6.91 7.15-7.02 6.21-15.51 10.77-24.6 13.08-4.9 1.3-9.95 1.97-15.02 1.83V0zM438.82 393.25c18.97-4.06 39.61 1.9 53.75 15.12 11.32 10.31 18.37 25.04 19.43 40.3v6.5c-1.02 15.56-8.32 30.55-19.95 40.93-10.49 9.56-24.36 15.14-38.5 15.9h-5.74c-13.66-.94-27.02-6.38-37.12-15.67-8.59-7.79-14.86-18.1-17.75-29.33-4.48-16.63-1.08-35.09 8.81-49.17 8.63-12.52 22.19-21.46 37.07-24.58z" class="st1"/><path d="M107.43 113.07c29.85-13.77 59.69-27.56 89.54-41.33 1.9 9.94 6.26 19.39 12.69 27.2-29.88 13.78-59.75 27.57-89.63 41.34-1.87-9.93-6.21-19.38-12.6-27.21zM241 119.04c4.88 1.35 9.95 1.88 15 1.99-.01 39.98.01 79.95 0 119.93-5.06.12-10.12.65-15 1.99V119.04zM116.17 174.5c15.98 12.3 31.98 24.57 47.95 36.89 18.37 14.11 36.73 28.22 55.07 42.36a61.063 61.063 0 0 0-18.33 23.73c-16.82-12.88-33.57-25.84-50.38-38.74-17.52-13.5-35.08-26.97-52.6-40.48 7.96-6.23 14.29-14.48 18.29-23.76zM97.8 404.66c34.4-26.64 68.71-53.4 103.08-80.09 4.03 9.28 10.41 17.5 18.37 23.72-34.36 26.72-68.73 53.44-103.11 80.14-4-9.3-10.38-17.53-18.34-23.77z" class="st2"/><path d="M315.16 71.8c29.83 13.71 59.62 27.49 89.44 41.23-6.41 7.82-10.75 17.27-12.64 27.21-29.83-13.73-59.63-27.51-89.43-41.27 6.38-7.83 10.75-17.25 12.63-27.17zM256 121.03c5.07.14 10.12-.53 15.02-1.83-.04 41.2-.01 82.4-.02 123.6-4.9-1.29-9.94-1.94-15-1.84.01-39.98-.01-79.95 0-119.93z" class="st3"/><path d="M23.15 104.21c12.03-9.46 27.65-14.36 42.94-12.99 15.99 1.3 31.22 9.41 41.34 21.85 6.39 7.83 10.73 17.28 12.6 27.21 2.11 11.47.69 23.5-3.86 34.22-4 9.28-10.33 17.53-18.29 23.76-11.24 8.81-25.69 13.43-39.96 12.65-16.81-.85-33.07-9.02-43.86-21.92C5.82 179.31.89 166.95 0 154.28v-6.38c1.01-17 9.71-33.26 23.15-43.69zM241 242.95c4.88-1.34 9.94-1.87 15-1.99-.01 40.02-.01 80.05.01 120.08-13.22-.07-26.34-4.62-36.76-12.75-7.96-6.22-14.34-14.44-18.37-23.72-6.46-14.83-6.48-32.25-.02-47.09a61.063 61.063 0 0 1 18.33-23.73c6.44-5.03 13.91-8.7 21.81-10.8z" class="st4"/><path d="M404.6 113.03c10.56-12.91 26.63-21.15 43.32-21.94 17.73-.99 35.65 6.37 47.74 19.34 9.57 10.04 15.36 23.47 16.34 37.28v6.34c-.88 13.67-6.54 26.94-15.85 36.99-11.65 12.79-28.89 20.28-46.19 19.94-16.54-.24-32.8-7.77-43.74-20.17-12.18-13.49-17.6-32.7-14.26-50.57 1.89-9.94 6.23-19.39 12.64-27.21zM256 240.96c5.06-.1 10.1.55 15 1.84 25.16 6.12 44.72 30.22 45.02 56.18.86 16.69-6.14 33.41-18.08 44.99-11.03 10.85-26.42 17.38-41.93 17.07-.02-40.03-.02-80.06-.01-120.08z" class="st5"/><path d="M216.62 106.12c6.99 6.11 15.4 10.55 24.38 12.92v123.91c-7.9 2.1-15.37 5.77-21.81 10.8-18.34-14.14-36.7-28.25-55.07-42.36 17.52-35.08 35.06-70.16 52.5-105.27zM150.48 238.74c16.81 12.9 33.56 25.86 50.38 38.74-6.46 14.84-6.44 32.26.02 47.09-34.37 26.69-68.68 53.45-103.08 80.09a60.155 60.155 0 0 0-24.42-11.36c25.71-51.51 51.42-103.03 77.1-154.56zM219.25 348.29c10.42 8.13 23.54 12.68 36.76 12.75.01 35.32-.04 70.64.01 105.96H119.05c3.41-12.71 2.26-26.5-2.91-38.57 34.38-26.7 68.75-53.42 103.11-80.14z" class="st6"/><path d="M271.02 119.2c9.09-2.31 17.58-6.87 24.6-13.08 47.62 95.77 95.46 191.43 143.2 287.13-14.88 3.12-28.44 12.06-37.07 24.58-9.89 14.08-13.29 32.54-8.81 49.17-45.64-.01-91.28 0-136.92 0-.05-35.32 0-70.64-.01-105.96 15.51.31 30.9-6.22 41.93-17.07 11.94-11.58 18.94-28.3 18.08-44.99-.3-25.96-19.86-50.06-45.02-56.18.01-41.2-.02-82.4.02-123.6z" style="fill:#47568c"/></svg>