<?xml version="1.0" standalone="no"?>
<!DOCTYPE svg PUBLIC "-//W3C//DTD SVG 20010904//EN"
 "http://www.w3.org/TR/2001/REC-SVG-20010904/DTD/svg10.dtd">
<svg version="1.0" xmlns="http://www.w3.org/2000/svg"
 width="700.000000pt" height="700.000000pt" viewBox="0 0 700.000000 700.000000"
 preserveAspectRatio="xMidYMid meet">
<metadata>
Created by potrace 1.14, written by Peter Selinger 2001-2017
</metadata>
<g transform="translate(0.000000,700.000000) scale(0.100000,-0.100000)"
fill="#000000" stroke="none">
<path d="M3399 6996 c-2 -2 -22 -7 -44 -10 -57 -9 -71 -13 -155 -48 -315 -131
-518 -434 -518 -774 0 -45 3 -98 7 -117 6 -22 4 -34 -3 -34 -10 0 -81 -33
-394 -179 -39 -19 -98 -46 -130 -60 -31 -14 -79 -36 -107 -49 -27 -13 -84 -39
-125 -58 -41 -19 -115 -54 -165 -77 -49 -23 -110 -51 -135 -62 -25 -11 -68
-31 -96 -44 -28 -13 -55 -24 -60 -24 -5 0 -29 20 -52 45 -240 255 -635 322
-957 162 -334 -165 -517 -526 -450 -887 12 -64 55 -174 98 -249 51 -91 186
-232 273 -284 173 -104 380 -150 559 -124 121 17 273 78 362 145 l31 23 114
-88 c62 -48 118 -92 125 -98 6 -5 117 -91 246 -190 l235 -179 -403 -806 c-221
-443 -458 -918 -526 -1057 -95 -192 -128 -251 -139 -246 -27 10 -234 12 -293
2 -265 -44 -511 -233 -624 -479 -86 -188 -94 -412 -22 -606 94 -251 302 -438
574 -516 114 -32 306 -32 420 0 80 23 225 90 252 117 8 8 18 15 22 15 5 0 40
31 79 68 86 84 162 197 203 305 l31 82 1869 0 1870 0 23 -65 c81 -231 262
-415 491 -498 108 -39 179 -50 298 -47 346 8 633 208 761 529 112 281 43 623
-171 844 -124 127 -248 196 -443 246 -48 13 -226 18 -278 8 l-53 -9 -743 1491
c-409 820 -849 1703 -979 1962 l-234 471 48 51 49 50 83 -40 c45 -22 125 -59
177 -83 52 -23 144 -66 204 -94 59 -28 109 -51 111 -51 1 0 60 -27 129 -60 70
-33 129 -60 131 -60 2 0 46 -20 97 -44 193 -91 270 -126 278 -126 5 0 6 -21 3
-47 -38 -313 101 -615 362 -789 240 -160 548 -182 808 -57 135 65 282 194 345
303 14 25 29 47 32 50 10 8 58 130 71 180 19 69 19 70 25 160 23 321 -165 633
-471 782 -73 36 -161 63 -236 75 -51 8 -200 8 -244 0 -178 -30 -361 -126 -472
-246 -20 -23 -41 -41 -45 -41 -4 0 -51 20 -104 45 -53 25 -97 45 -99 45 -3 0
-96 43 -284 131 -57 27 -105 49 -106 49 -2 0 -47 21 -102 46 -264 124 -506
234 -514 234 -6 0 -7 21 -4 48 23 187 -15 366 -114 538 -93 162 -264 299 -459
367 -75 26 -104 31 -213 34 -69 2 -127 1 -130 -1z m-796 -2166 c-234 -470
-361 -716 -369 -712 -6 4 -27 19 -45 34 -19 15 -119 93 -224 173 -104 80 -197
151 -205 158 -8 6 -50 39 -93 71 -43 33 -76 65 -73 72 21 55 45 151 51 204 9
71 8 205 -1 233 -6 18 -6 18 231 127 33 15 146 67 250 115 105 48 237 109 294
136 57 27 105 49 107 49 2 0 61 27 131 60 70 33 146 68 168 79 l40 18 48 -49
48 -50 -358 -718z"/>
</g>
</svg>
