<svg xmlns="http://www.w3.org/2000/svg" xml:space="preserve" id="Слой_1" x="0" y="0" style="enable-background:new 0 0 100 100" version="1.1" viewBox="0 0 100 100"><style>.st0,.st1{fill:none;stroke:orange;stroke-width:2.5;stroke-miterlimit:12.5}.st1{stroke-linecap:round}</style><path d="M42.5 63.8 71.4 87c5 2.2 6.8-2.3 6.8-2.3L91 19.8c1.1-5-2.2-5.4-4.9-4.4-2.5 1-74.1 30.9-74.1 30.9s-3.5 1.2-3.2 3.3c.3 2.2 3.1 3.2 3.1 3.2l18.1 6s5.2 17.9 6.2 21.3c1.1 3.4 2 3.5 2 3.5 1 .4 2-.3 2-.3l12.3-10.8" class="st0"/><path d="M77.4 30.1c.5-1.9-1.2-1.2-1.2-1.2L30 58.8" class="st0"/><path d="M42.5 63.8h0" class="st1"/><path d="m46 60.4 29.8-28.7" style="fill:none;stroke:orange;stroke-width:2.5;stroke-linecap:round;stroke-miterlimit:12.5;stroke-dasharray:0,4.8621"/><path d="M77.5 30h0" class="st1"/><path d="m38.8 83.3 3.7-19.6" class="st0"/></svg>