<svg xmlns="http://www.w3.org/2000/svg" xml:space="preserve" style="enable-background:new 0 0 80 80" viewBox="0 0 80 80"><path d="M40 7C21.8 7 7 21.8 7 40c0 5.9 1.6 11.4 4.3 16.2L5.4 74.8l19.7-5.4C29.6 71.7 34.6 73 40 73c18.2 0 33-14.8 33-33S58.2 7 40 7zm0 2c17.1 0 31 13.9 31 31S57.1 71 40 71c-5.2 0-10.1-1.3-14.4-3.5l-.3-.2-16.9 4.6 5-16-.2-.4C10.5 51 9 45.7 9 40 9 22.9 22.9 9 40 9zm0 3c-.6 0-1 .4-1 1s.4 1 1 1 1-.4 1-1-.4-1-1-1zm5.3.5c-.5 0-.9.3-1 .8-.1.5.2 1.1.8 1.2.5.1 1.1-.2 1.2-.8.1-.5-.2-1.1-.8-1.2h-.2zm-10.6 0h-.2c-.5.1-.9.6-.8 1.2.1.3.2.5.4.6.2.1.5.2.8.1.5-.1.9-.6.8-1.2-.1-.3-.5-.7-1-.7zm-5 1.6c-.1 0-.3 0-.4.1-.5.2-.8.8-.5 1.3.2.5.8.8 1.3.5.5-.2.8-.8.5-1.3-.2-.4-.5-.6-.9-.6zm20.7 0c-.4 0-.8.2-.9.6-.2.5 0 1.1.5 1.3.5.2 1.1 0 1.3-.5.2-.5 0-1.1-.5-1.3-.2-.1-.3-.1-.4-.1zM25 16.5c-.2 0-.4.1-.6.2-.5.3-.6.9-.3 1.4.3.5.9.6 1.4.3.5-.3.6-.9.3-1.4-.2-.3-.5-.4-.8-.5zm30 0c-.3 0-.7.2-.8.4-.3.5-.2 1.1.3 1.4.5.3 1.1.2 1.4-.3.1-.2.2-.5.2-.8-.1-.3-.2-.5-.4-.6-.3 0-.5 0-.7-.1zm-34.1 3.4c-.3 0-.5.1-.7.3-.4.4-.4 1 0 1.4.4.4 1 .4 1.4 0 .4-.4.4-1 0-1.4-.2-.2-.4-.3-.7-.3zm38.2 0c-.3 0-.5.1-.7.3-.4.4-.4 1 0 1.4.4.4 1 .4 1.4 0 .4-.4.4-1 0-1.4-.2-.2-.4-.3-.7-.3zm3.4 4.1c-.2 0-.4.1-.6.2-.5.3-.6.9-.3 1.4.3.5.9.6 1.4.3.5-.3.6-.9.3-1.4-.2-.3-.5-.5-.8-.5zm-44.9 0c-.3 0-.7.2-.8.4-.3.5-.2 1.1.3 1.4.5.3 1.1.2 1.4-.3.3-.5.2-1.1-.3-1.4-.3 0-.4-.1-.6-.1zm11 .6c-.8 0-1.9.3-2.8 1.3-.6.7-3 3-3 7.3 0 4.4 3 8.2 3.4 8.8 0 0 .5.7 1.2 1.6.7.9 1.6 2.1 2.8 3.3 2.4 2.5 5.7 5.5 9.9 7.3 1.9.8 3.4 1.3 4.6 1.7 2.1.7 4 .6 5.4.3 1-.1 2.2-.7 3.4-1.4 1.2-.7 2.3-1.7 2.7-3 .4-1 .5-1.9.6-2.7v-1c0-.3 0-.5-.2-.9-.5-.8-1.2-.9-1.9-1.3-.4-.2-1.6-.8-2.7-1.3-1.2-.6-2.2-1.1-2.8-1.3-.4-.1-.8-.3-1.4-.3-.6.1-1.2.5-1.5 1-.4.6-2 2.5-2.4 3l-.1.1s-.1 0-.4-.2c-.5-.3-1.3-.5-2.3-1.1-1.1-.6-2.4-1.4-3.8-2.7-2.2-2-3.8-4.5-4.2-5.2-.1-.2-.1-.1-.1-.1l.3-.3c.4-.4.9-1 1.2-1.4.5-.6.7-1 .9-1.5.4-.9.2-1.8-.1-2.3 0 0-.2-.4-.3-.8-.2-.4-.4-1-.7-1.6-.5-1.2-1.1-2.6-1.4-3.4-.4-.9-.8-1.5-1.4-1.8-.6-.3-1.1-.2-1.2-.2-.6.1-1.2.1-1.7.1zm0 2h1.9s.2.1.5.7c.3.8.9 2.1 1.4 3.4.2.6.5 1.2.7 1.6s.3.7.4.9c.1.3.2.3.1.5-.3.6-.3.8-.7 1.1-.4.5-.9 1.1-1.1 1.3-.2.2-.5.5-.7 1-.2.5-.1 1.2.2 1.8.5.8 2.1 3.5 4.6 5.7 1.6 1.4 3 2.3 4.2 3s2.1 1 2.4 1.1c.5.2 1 .4 1.5.3.6-.1 1-.4 1.4-.8.5-.5 1.9-2.2 2.6-3.2.2-.2.1-.2.1-.2s.2 0 .5.1c.2.1 1.4.6 2.6 1.2 1.2.6 2.3 1.1 2.7 1.3.6.3.9.5 1.1.6v.7c-.1.6-.2 1.4-.5 2.2-.2.5-1 1.4-1.9 2-1 .6-2.1 1-2.6 1.1-1.3.2-2.8.3-4.5-.3-1.1-.4-2.6-.8-4.4-1.6-3.8-1.6-7-4.4-9.2-6.8-1.1-1.2-2-2.3-2.7-3.2-.6-.9-1-1.3-1.2-1.6-.4-.5-3-4.2-3-7.6 0-3.5 1.7-5 2.5-5.9.3-.3.8-.4 1.1-.4zM65 28.7c-.1 0-.3 0-.4.1-.5.2-.8.7-.6 1.2.2.5.8.8 1.3.5s.8-.8.5-1.3c-.1-.3-.4-.5-.8-.5zm-49.9 0c-.4 0-.8.2-.9.6-.2.5 0 1.1.5 1.3.5.2 1.1 0 1.3-.5s0-1.1-.5-1.3c-.2-.1-.3-.1-.4-.1zm51.4 5h-.2c-.5.1-.9.6-.8 1.2.1.5.6.9 1.2.8.5-.1.9-.6.8-1.2-.1-.4-.5-.8-1-.8zm-53 0c-.5 0-.9.3-1 .8-.1.3 0 .5.1.8.1.2.4.4.6.4.3.1.5 0 .8-.1.2-.1.4-.4.4-.6.1-.5-.2-1.1-.8-1.2.1-.1 0-.1-.1-.1zM13 39c-.6 0-1 .4-1 1s.4 1 1 1 1-.4 1-1-.4-1-1-1zm54 0c-.6 0-1 .4-1 1s.4 1 1 1 1-.4 1-1-.4-1-1-1zm-53.5 5.3h-.2c-.5.1-.9.6-.8 1.2.1.5.6.9 1.2.8.5-.1.9-.6.8-1.2-.1-.5-.5-.8-1-.8zm53 0c-.5 0-.9.3-1 .8-.1.5.2 1.1.8 1.2.5.1 1.1-.2 1.2-.8.1-.5-.2-1.1-.8-1.2h-.2zm-1.5 5c-.4 0-.8.2-.9.6-.2.5 0 1.1.5 1.3s1.1 0 1.3-.5c.2-.5 0-1.1-.5-1.3-.2 0-.3-.1-.4-.1zm-49.9 0c-.1 0-.3 0-.4.1-.2.1-.4.3-.5.5-.1.2-.1.5 0 .8.2.5.8.8 1.3.5.2-.1.4-.3.5-.5s.1-.5 0-.8c-.2-.3-.5-.6-.9-.6zM62.5 54c-.3 0-.7.2-.8.4-.3.5-.2 1.1.3 1.4.2.1.5.2.8.1.3-.1.5-.2.6-.4.3-.5.2-1.1-.3-1.4-.3 0-.4-.1-.6-.1zM17 56c-.6 0-1 .4-1 1s.4 1 1 1 1-.4 1-1-.4-1-1-1zm42.1 2.1c-.3 0-.5.1-.7.3-.4.4-.4 1 0 1.4.4.4 1 .4 1.4 0 .4-.4.4-1 0-1.4-.2-.2-.4-.3-.7-.3zM15 61c-.6 0-1 .4-1 1s.4 1 1 1 1-.4 1-1-.4-1-1-1zm40 .4c-.2 0-.4.1-.6.2-.2.1-.4.4-.4.6-.1.3 0 .5.2.8.3.5.9.6 1.4.3.5-.3.6-.9.3-1.4-.2-.3-.6-.5-.9-.5zM24 63c-.6 0-1 .4-1 1s.4 1 1 1 1-.4 1-1-.4-1-1-1zm5.7.9c-.4 0-.8.2-.9.6-.2.5 0 1.1.5 1.3.5.2 1.1 0 1.3-.5.2-.5 0-1.1-.5-1.3-.2 0-.3-.1-.4-.1zm20.6 0c-.1 0-.3 0-.4.1-.2.1-.4.3-.5.5-.1.2-.1.5 0 .8.2.5.8.8 1.3.5.2-.1.4-.3.5-.5.1-.2.1-.5 0-.8-.1-.3-.5-.6-.9-.6zM19 64c-.6 0-1 .4-1 1s.4 1 1 1 1-.4 1-1-.4-1-1-1zm15.8 1.5c-.5 0-.9.3-1 .8-.1.5.2 1.1.8 1.2s1.1-.2 1.2-.8-.2-1.1-.8-1.2h-.2zm10.5 0h-.2c-.5.1-.9.6-.8 1.2.1.3.2.5.4.6.2.1.5.2.8.2.3-.1.5-.2.6-.4.1-.2.2-.5.1-.8 0-.5-.5-.8-.9-.8zM13 66c-.6 0-1 .4-1 1s.4 1 1 1 1-.4 1-1-.4-1-1-1zm27 0c-.6 0-1 .4-1 1s.4 1 1 1 1-.4 1-1-.4-1-1-1z" style="fill:orange"/></svg>